[img]http://www.pix2links.com/image/qxkmp.jpg[/img]

General
Complete name : Lifes.Too.Short.S01E01.HDTV.XviD-RiVER.avi
Format : AVI
Format/Info : Audio Video Interleave
File size : 233 MiB
Duration : 28mn 2s
Overall bit rate : 1 161 Kbps

Video
ID : 0
Format : MPEG-4 Visual
Format profile : Advanced Simple@L5
Format settings, BVOP : 2
Format settings, QPel : No
Format settings, GMC : No warppoints
Format settings, Matrix : Default (H.263)
Codec ID : XVID
Codec ID/Hint : XviD
Duration : 28mn 2s
Bit rate : 1 013 Kbps
Width : 624 pixels
Height : 352 pixels
Display aspect ratio : 16:9
Frame rate : 25.000 fps
Color space : YUV
Chroma subsampling : 4:2:0
Bit depth : 8 bits
Scan type : Progressive
Compression mode : Lossy
Bits/(Pixel*Frame) : 0.184
Stream size : 203 MiB (87%)
Writing library : XviD 1.2.1 (UTC 2008-12-04)

Audio
ID : 1
Format : MPEG Audio
Format version : Version 1
Format profile : Layer 3
Mode : Joint stereo
Mode extension : MS Stereo
Codec ID : 55
Codec ID/Hint : MP3
Duration : 28mn 2s
Bit rate mode : Variable
Bit rate : 135 Kbps
Nominal bit rate : 128 Kbps
Channel(s) : 2 channels
Sampling rate : 48.0 KHz
Compression mode : Lossy
Stream size : 27.1 MiB (12%)
Alignment : Aligned on interleaves
Interleave, duration : 24 ms (0.60 video frame)
Interleave, preload duration : 28 ms
Writing library : LAME3.90.
Encoding settings : -m j -V 4 -q 2 -lowpass 17.6 --abr 128

IMDB: http://www.imdb.com/title/tt1641247/

[img]http://www.pix2links.com/image/sNWeR.jpg[/img]
[img]http://www.pix2links.com/image/HF0GK.jpg[/img]
[img]http://www.pix2links.com/image/PJnl1.jpg[/img]
[img]http://www.pix2links.com/image/MhA3i.jpg[/img]
